<svg width="744" height="248" viewBox="0 0 744 248" fill="none" xmlns="http://www.w3.org/2000/svg">
<path d="M86.5 122.542C66.605 122.542 50.4583 106.395 50.4583 86.5C50.4583 66.605 66.605 50.4583 86.5 50.4583C106.395 50.4583 122.542 66.605 122.542 86.5C122.542 106.395 106.395 122.542 86.5 122.542ZM86.5 64.875C74.6062 64.875 64.875 74.6062 64.875 86.5C64.875 98.3938 74.6062 108.125 86.5 108.125C98.3938 108.125 108.125 98.3938 108.125 86.5C108.125 74.6062 98.3938 64.875 86.5 64.875ZM93.7083 28.8333V7.20833C93.7083 3.24375 90.4646 0 86.5 0C82.5354 0 79.2917 3.24375 79.2917 7.20833V28.8333C79.2917 32.7979 82.5354 36.0417 86.5 36.0417C90.4646 36.0417 93.7083 32.7979 93.7083 28.8333ZM93.7083 165.792V144.167C93.7083 140.202 90.4646 136.958 86.5 136.958C82.5354 136.958 79.2917 140.202 79.2917 144.167V165.792C79.2917 169.756 82.5354 173 86.5 173C90.4646 173 93.7083 169.756 93.7083 165.792ZM36.0417 86.5C36.0417 82.5354 32.7979 79.2917 28.8333 79.2917H7.20833C3.24375 79.2917 0 82.5354 0 86.5C0 90.4646 3.24375 93.7083 7.20833 93.7083H28.8333C32.7979 93.7083 36.0417 90.4646 36.0417 86.5ZM173 86.5C173 82.5354 169.756 79.2917 165.792 79.2917H144.167C140.202 79.2917 136.958 82.5354 136.958 86.5C136.958 90.4646 140.202 93.7083 144.167 93.7083H165.792C169.756 93.7083 173 90.4646 173 86.5ZM48.3679 48.3679C51.1792 45.5567 51.1792 41.0154 48.3679 38.2042L33.9513 23.7875C31.14 20.9762 26.5988 20.9762 23.7875 23.7875C20.9762 26.5988 20.9762 31.14 23.7875 33.9513L38.2042 48.3679C39.6458 49.8096 41.4479 50.4583 43.3221 50.4583C45.1963 50.4583 46.9983 49.7375 48.44 48.3679H48.3679ZM149.285 149.285C152.096 146.473 152.096 141.932 149.285 139.121L134.868 124.704C132.057 121.893 127.515 121.893 124.704 124.704C121.893 127.515 121.893 132.057 124.704 134.868L139.121 149.285C140.562 150.726 142.365 151.375 144.239 151.375C146.113 151.375 147.915 150.654 149.357 149.285H149.285ZM33.9513 149.285L48.3679 134.868C51.1792 132.057 51.1792 127.515 48.3679 124.704C45.5567 121.893 41.0154 121.893 38.2042 124.704L23.7875 139.121C20.9762 141.932 20.9762 146.473 23.7875 149.285C25.2292 150.726 27.0313 151.375 28.9054 151.375C30.7796 151.375 32.5817 150.654 34.0233 149.285H33.9513ZM134.868 48.3679L149.285 33.9513C152.096 31.14 152.096 26.5988 149.285 23.7875C146.473 20.9762 141.932 20.9762 139.121 23.7875L124.704 38.2042C121.893 41.0154 121.893 45.5567 124.704 48.3679C126.146 49.8096 127.948 50.4583 129.822 50.4583C131.696 50.4583 133.498 49.7375 134.94 48.3679H134.868Z" fill="black"/>
<path d="M86.5 122.542C66.605 122.542 50.4583 106.395 50.4583 86.5C50.4583 66.605 66.605 50.4583 86.5 50.4583C106.395 50.4583 122.542 66.605 122.542 86.5C122.542 106.395 106.395 122.542 86.5 122.542ZM86.5 64.875C74.6062 64.875 64.875 74.6062 64.875 86.5C64.875 98.3938 74.6062 108.125 86.5 108.125C98.3938 108.125 108.125 98.3938 108.125 86.5C108.125 74.6062 98.3938 64.875 86.5 64.875ZM93.7083 28.8333V7.20833C93.7083 3.24375 90.4646 0 86.5 0C82.5354 0 79.2917 3.24375 79.2917 7.20833V28.8333C79.2917 32.7979 82.5354 36.0417 86.5 36.0417C90.4646 36.0417 93.7083 32.7979 93.7083 28.8333ZM93.7083 165.792V144.167C93.7083 140.202 90.4646 136.958 86.5 136.958C82.5354 136.958 79.2917 140.202 79.2917 144.167V165.792C79.2917 169.756 82.5354 173 86.5 173C90.4646 173 93.7083 169.756 93.7083 165.792ZM36.0417 86.5C36.0417 82.5354 32.7979 79.2917 28.8333 79.2917H7.20833C3.24375 79.2917 0 82.5354 0 86.5C0 90.4646 3.24375 93.7083 7.20833 93.7083H28.8333C32.7979 93.7083 36.0417 90.4646 36.0417 86.5ZM173 86.5C173 82.5354 169.756 79.2917 165.792 79.2917H144.167C140.202 79.2917 136.958 82.5354 136.958 86.5C136.958 90.4646 140.202 93.7083 144.167 93.7083H165.792C169.756 93.7083 173 90.4646 173 86.5ZM48.3679 48.3679C51.1792 45.5567 51.1792 41.0154 48.3679 38.2042L33.9513 23.7875C31.14 20.9762 26.5988 20.9762 23.7875 23.7875C20.9762 26.5988 20.9762 31.14 23.7875 33.9513L38.2042 48.3679C39.6458 49.8096 41.4479 50.4583 43.3221 50.4583C45.1963 50.4583 46.9983 49.7375 48.44 48.3679H48.3679ZM149.285 149.285C152.096 146.473 152.096 141.932 149.285 139.121L134.868 124.704C132.057 121.893 127.515 121.893 124.704 124.704C121.893 127.515 121.893 132.057 124.704 134.868L139.121 149.285C140.562 150.726 142.365 151.375 144.239 151.375C146.113 151.375 147.915 150.654 149.357 149.285H149.285ZM33.9513 149.285L48.3679 134.868C51.1792 132.057 51.1792 127.515 48.3679 124.704C45.5567 121.893 41.0154 121.893 38.2042 124.704L23.7875 139.121C20.9762 141.932 20.9762 146.473 23.7875 149.285C25.2292 150.726 27.0313 151.375 28.9054 151.375C30.7796 151.375 32.5817 150.654 34.0233 149.285H33.9513ZM134.868 48.3679L149.285 33.9513C152.096 31.14 152.096 26.5988 149.285 23.7875C146.473 20.9762 141.932 20.9762 139.121 23.7875L124.704 38.2042C121.893 41.0154 121.893 45.5567 124.704 48.3679C126.146 49.8096 127.948 50.4583 129.822 50.4583C131.696 50.4583 133.498 49.7375 134.94 48.3679H134.868Z" stroke="black"/>
<path d="M201.875 162.5C196.25 162.5 193.437 164.167 193.437 167.5C193.437 170.667 196.396 173 202.312 174.5L212.375 177.188C222.792 179.938 228 185.958 228 195.25C228 201.625 225.771 206.854 221.312 210.938C219.062 212.938 216.042 214.438 212.25 215.438C208.458 216.396 204.375 216.917 200 217C195.667 217.083 191.458 216.771 187.375 216.062C183.292 215.354 179.854 214.312 177.062 212.938C177.021 212.479 176.979 212.021 176.937 211.562C176.937 211.062 176.937 210.583 176.937 210.125C176.937 205.417 177.875 201.188 179.75 197.438H190.375C191.542 199.562 192.271 201.688 192.562 203.812C194.187 204.354 196.625 204.625 199.875 204.625C207.375 204.625 211.125 202.479 211.125 198.188C211.125 196.854 210.625 195.729 209.625 194.812C208.542 193.938 206.521 193.062 203.562 192.188L193.437 189.25C188.229 187.792 184.167 185.646 181.25 182.812C178.375 179.938 176.937 175.708 176.937 170.125C176.937 164.5 179.208 159.917 183.75 156.375C186 154.583 188.812 153.25 192.187 152.375C195.604 151.5 199.25 151.042 203.125 151C207 150.917 210.792 151.208 214.5 151.875C218.208 152.5 221.521 153.438 224.437 154.688C224.479 155.104 224.5 155.521 224.5 155.938C224.542 156.354 224.562 156.792 224.562 157.25C224.562 161.625 223.625 165.729 221.75 169.562H211.25C210.083 167.521 209.354 165.458 209.062 163.375C206.604 162.792 204.208 162.5 201.875 162.5Z" fill="black"/>
<path d="M232.5 135L233.75 125.125C238.583 124 243.042 123.438 247.125 123.438C251.208 123.438 254.646 123.562 257.437 123.812V155.812C259.521 154.479 262.25 153.354 265.625 152.438C269.042 151.479 272.083 151 274.75 151C283.208 151 289.042 153.042 292.25 157.125C295.5 161.208 297.125 167.438 297.125 175.812V201.812C300.458 203.062 302.812 204.5 304.187 206.125L302.875 216H273.437L272.187 206.125C273.354 204.5 275.708 203.062 279.25 201.812V176.438C279.25 171.812 278.5 168.729 277 167.188C275.833 165.938 274.104 165.188 271.812 164.938C269.562 164.646 267.146 164.833 264.562 165.5C261.979 166.167 259.604 167.292 257.437 168.875V201.812C260.771 203.062 263.125 204.5 264.5 206.125L263.25 216H233.75L232.5 206.125C233.667 204.5 236.021 203.062 239.562 201.812V139.312C236.521 138.312 234.167 136.875 232.5 135Z" fill="black"/>
<path d="M311.25 161.5C311.25 160.833 311.25 160.167 311.25 159.5C311.292 158.792 311.333 158.083 311.375 157.375C319.333 153.125 327.875 151 337 151C346.125 151 352.667 152.729 356.625 156.188C360.583 159.646 362.562 165.375 362.562 173.375V200.625C365.521 201.25 367.875 201.979 369.625 202.812V213.938C365.375 215.979 359.146 217 350.937 217C350.062 214.708 349.333 212.021 348.75 208.938C345.083 214.312 338.437 217 328.812 217C325.021 217 321.542 216.25 318.375 214.75C315.25 213.25 312.75 211.125 310.875 208.375C309 205.583 308.062 202.271 308.062 198.438C308.062 192.729 309.958 188.25 313.75 185C317.542 181.708 323.187 180.062 330.687 180.062H344.687V173.875C344.687 167.208 341.146 163.875 334.062 163.875C331.312 163.875 329.125 164.146 327.5 164.688C327.292 168.312 326.792 171.083 326 173H313.437C311.979 169.958 311.25 166.125 311.25 161.5ZM334.312 203.938C338.687 203.938 342.146 202.667 344.687 200.125V189.625H335.687C329.562 189.625 326.5 191.979 326.5 196.688C326.5 198.812 327.146 200.562 328.437 201.938C329.771 203.271 331.729 203.938 334.312 203.938Z" fill="black"/>
<path d="M406.187 135L407.437 125.125C412.312 124 416.979 123.438 421.437 123.438C425.854 123.438 429.646 123.562 432.812 123.812V200.625C435.437 201.083 437.792 201.812 439.875 202.812V212.938C434.708 215.646 428.208 217 420.375 217C419.542 216.583 418.708 215.833 417.875 214.75C417.083 213.625 416.646 212.542 416.562 211.5C414.687 213.042 412.25 214.354 409.25 215.438C406.25 216.479 403.312 217 400.437 217C391.229 217 384.542 214.521 380.375 209.562C376.25 204.562 374.187 196.375 374.187 185C374.187 172.125 377.354 163.083 383.687 157.875C389.271 153.292 396.083 151 404.125 151C407.625 151 411.208 151.417 414.875 152.25V139.562C411 138.521 408.104 137 406.187 135ZM403.125 203.938C408.042 203.938 411.958 202.5 414.875 199.625V165.312C411.292 164.479 407.583 164.062 403.75 164.062C399.833 164.062 397 165.771 395.25 169.188C393.5 172.604 392.625 177.771 392.625 184.688C392.625 191.562 393.479 196.5 395.187 199.5C396.896 202.458 399.542 203.938 403.125 203.938Z" fill="black"/>
<path d="M475.937 217C465.687 217 457.979 214.271 452.812 208.812C447.646 203.354 445.062 195.417 445.062 185C445.062 178.708 445.958 173.292 447.75 168.75C449.542 164.167 451.979 160.625 455.062 158.125C461.021 153.375 467.979 151 475.937 151C481.229 151 485.687 151.875 489.312 153.625C492.979 155.333 495.75 158.229 497.625 162.312C499.542 166.354 500.5 171.875 500.5 178.875C500.5 185.042 497.458 188.125 491.375 188.125H463.625C463.958 193.5 465.333 197.292 467.75 199.5C470.208 201.708 474.083 202.812 479.375 202.812C482.25 202.812 485 202.479 487.625 201.812C490.292 201.104 492.229 200.417 493.437 199.75L495.25 198.75L499.062 208.938C498.604 209.479 497.875 210.229 496.875 211.188C496.208 211.812 494.854 212.583 492.812 213.5C490.771 214.417 488.271 215.229 485.312 215.938C482.396 216.646 479.271 217 475.937 217ZM463.75 177.5L484 176.688C484.167 175.646 484.25 174.208 484.25 172.375C484.25 170.667 483.562 168.854 482.187 166.938C480.812 165.021 478.437 164.062 475.062 164.062C471.687 164.062 469.104 165.083 467.312 167.125C465.521 169.167 464.333 172.625 463.75 177.5Z" fill="black"/>
<path d="M600.125 166.75L584.125 216.75H567.5L560.937 196.562C559.646 192.438 558.583 187.312 557.75 181.188L557.375 178.125H555.562C555.146 181.458 554.604 184.646 553.937 187.688C553.312 190.729 552.583 193.646 551.75 196.438L545.75 216.75H527.562L511.437 166.438C507.771 165.188 505.25 163.667 503.875 161.875L505.125 152H535.125L536.375 161.875C534.833 163.667 532.229 165.188 528.562 166.438L536 199.125H537.812C538.271 196.833 538.771 194.542 539.312 192.25C539.854 189.917 540.458 187.542 541.125 185.125L549.812 152.25H564.187L572.75 184.875L575.937 199.125H577.75C580.875 184.667 583 174.979 584.125 170.062L584.875 166.438C581.083 165.146 578.542 163.625 577.25 161.875L578.5 152H606.937L608.187 161.875C606.771 163.792 604.083 165.417 600.125 166.75Z" fill="black"/>
<path d="M613.875 161.5C613.875 160.833 613.875 160.167 613.875 159.5C613.917 158.792 613.958 158.083 614 157.375C621.958 153.125 630.5 151 639.625 151C648.75 151 655.292 152.729 659.25 156.188C663.208 159.646 665.187 165.375 665.187 173.375V200.625C668.146 201.25 670.5 201.979 672.25 202.812V213.938C668 215.979 661.771 217 653.562 217C652.687 214.708 651.958 212.021 651.375 208.938C647.708 214.312 641.062 217 631.437 217C627.646 217 624.167 216.25 621 214.75C617.875 213.25 615.375 211.125 613.5 208.375C611.625 205.583 610.687 202.271 610.687 198.438C610.687 192.729 612.583 188.25 616.375 185C620.167 181.708 625.812 180.062 633.312 180.062H647.312V173.875C647.312 167.208 643.771 163.875 636.687 163.875C633.937 163.875 631.75 164.146 630.125 164.688C629.917 168.312 629.417 171.083 628.625 173H616.062C614.604 169.958 613.875 166.125 613.875 161.5ZM636.937 203.938C641.312 203.938 644.771 202.667 647.312 200.125V189.625H638.312C632.187 189.625 629.125 191.979 629.125 196.688C629.125 198.812 629.771 200.562 631.062 201.938C632.396 203.271 634.354 203.938 636.937 203.938Z" fill="black"/>
<path d="M689.687 230.875H691.5C693.042 230.875 694.687 229.438 696.437 226.562C698.187 223.688 699.396 220.292 700.062 216.375L679.062 166.75C674.896 165.375 672.083 163.75 670.625 161.875L671.875 152H701.375L702.625 161.875C701.458 163.208 699.583 164.438 697 165.562L704.062 184.875C705.562 188.958 706.625 192.938 707.25 196.812L707.625 198.562H709.437C710.146 194.271 711.333 189.792 713 185.125L719.75 166.188C716.667 165.021 714.458 163.583 713.125 161.875L714.375 152H742.562L743.812 161.875C742.271 163.833 739.458 165.5 735.375 166.875L714.25 216.75C710.25 226.292 707.187 232.396 705.062 235.062C701.312 240.104 696.083 242.625 689.375 242.625C682.667 242.625 677.562 240.875 674.062 237.375C674.021 236.958 673.979 236.521 673.937 236.062C673.937 235.646 673.937 235.229 673.937 234.812C673.937 230.188 674.917 225.75 676.875 221.5H687.5C688.75 223.75 689.479 226.875 689.687 230.875Z" fill="black"/>
<mask id="mask0_0_1" style="mask-type:alpha" maskUnits="userSpaceOnUse" x="115" y="55" width="186" height="201">
<rect x="115.821" y="213.237" width="207.504" height="64.8553" transform="rotate(-49.4401 115.821 213.237)" fill="#D9D9D9"/>
</mask>
<g mask="url(#mask0_0_1)">
<path d="M201.875 162.5C196.25 162.5 193.437 164.167 193.437 167.5C193.437 170.667 196.396 173 202.312 174.5L212.375 177.188C222.792 179.938 228 185.958 228 195.25C228 201.625 225.771 206.854 221.312 210.938C219.062 212.938 216.042 214.438 212.25 215.438C208.458 216.396 204.375 216.917 200 217C195.667 217.083 191.458 216.771 187.375 216.062C183.292 215.354 179.854 214.312 177.062 212.938C177.021 212.479 176.979 212.021 176.937 211.562C176.937 211.062 176.937 210.583 176.937 210.125C176.937 205.417 177.875 201.188 179.75 197.438H190.375C191.542 199.562 192.271 201.688 192.562 203.812C194.187 204.354 196.625 204.625 199.875 204.625C207.375 204.625 211.125 202.479 211.125 198.188C211.125 196.854 210.625 195.729 209.625 194.812C208.542 193.938 206.521 193.062 203.562 192.188L193.437 189.25C188.229 187.792 184.167 185.646 181.25 182.812C178.375 179.938 176.937 175.708 176.937 170.125C176.937 164.5 179.208 159.917 183.75 156.375C186 154.583 188.812 153.25 192.187 152.375C195.604 151.5 199.25 151.042 203.125 151C207 150.917 210.792 151.208 214.5 151.875C218.208 152.5 221.521 153.438 224.437 154.688C224.479 155.104 224.5 155.521 224.5 155.938C224.542 156.354 224.562 156.792 224.562 157.25C224.562 161.625 223.625 165.729 221.75 169.562H211.25C210.083 167.521 209.354 165.458 209.062 163.375C206.604 162.792 204.208 162.5 201.875 162.5Z" fill="#A7A7A7"/>
<path d="M232.5 135L233.75 125.125C238.583 124 243.042 123.438 247.125 123.438C251.208 123.438 254.646 123.562 257.437 123.812V155.812C259.521 154.479 262.25 153.354 265.625 152.438C269.042 151.479 272.083 151 274.75 151C283.208 151 289.042 153.042 292.25 157.125C295.5 161.208 297.125 167.438 297.125 175.812V201.812C300.458 203.062 302.812 204.5 304.187 206.125L302.875 216H273.437L272.187 206.125C273.354 204.5 275.708 203.062 279.25 201.812V176.438C279.25 171.812 278.5 168.729 277 167.188C275.833 165.938 274.104 165.188 271.812 164.938C269.562 164.646 267.146 164.833 264.562 165.5C261.979 166.167 259.604 167.292 257.437 168.875V201.812C260.771 203.062 263.125 204.5 264.5 206.125L263.25 216H233.75L232.5 206.125C233.667 204.5 236.021 203.062 239.562 201.812V139.312C236.521 138.312 234.167 136.875 232.5 135Z" fill="#A7A7A7"/>
<path d="M311.25 161.5C311.25 160.833 311.25 160.167 311.25 159.5C311.292 158.792 311.333 158.083 311.375 157.375C319.333 153.125 327.875 151 337 151C346.125 151 352.667 152.729 356.625 156.188C360.583 159.646 362.562 165.375 362.562 173.375V200.625C365.521 201.25 367.875 201.979 369.625 202.812V213.938C365.375 215.979 359.146 217 350.937 217C350.062 214.708 349.333 212.021 348.75 208.938C345.083 214.312 338.437 217 328.812 217C325.021 217 321.542 216.25 318.375 214.75C315.25 213.25 312.75 211.125 310.875 208.375C309 205.583 308.062 202.271 308.062 198.438C308.062 192.729 309.958 188.25 313.75 185C317.542 181.708 323.187 180.062 330.687 180.062H344.687V173.875C344.687 167.208 341.146 163.875 334.062 163.875C331.312 163.875 329.125 164.146 327.5 164.688C327.292 168.312 326.792 171.083 326 173H313.437C311.979 169.958 311.25 166.125 311.25 161.5ZM334.312 203.938C338.687 203.938 342.146 202.667 344.687 200.125V189.625H335.687C329.562 189.625 326.5 191.979 326.5 196.688C326.5 198.812 327.146 200.562 328.437 201.938C329.771 203.271 331.729 203.938 334.312 203.938Z" fill="#A7A7A7"/>
<path d="M406.187 135L407.437 125.125C412.312 124 416.979 123.438 421.437 123.438C425.854 123.438 429.646 123.562 432.812 123.812V200.625C435.437 201.083 437.792 201.812 439.875 202.812V212.938C434.708 215.646 428.208 217 420.375 217C419.542 216.583 418.708 215.833 417.875 214.75C417.083 213.625 416.646 212.542 416.562 211.5C414.687 213.042 412.25 214.354 409.25 215.438C406.25 216.479 403.312 217 400.437 217C391.229 217 384.542 214.521 380.375 209.562C376.25 204.562 374.187 196.375 374.187 185C374.187 172.125 377.354 163.083 383.687 157.875C389.271 153.292 396.083 151 404.125 151C407.625 151 411.208 151.417 414.875 152.25V139.562C411 138.521 408.104 137 406.187 135ZM403.125 203.938C408.042 203.938 411.958 202.5 414.875 199.625V165.312C411.292 164.479 407.583 164.062 403.75 164.062C399.833 164.062 397 165.771 395.25 169.188C393.5 172.604 392.625 177.771 392.625 184.688C392.625 191.562 393.479 196.5 395.187 199.5C396.896 202.458 399.542 203.938 403.125 203.938Z" fill="#A7A7A7"/>
<path d="M475.937 217C465.687 217 457.979 214.271 452.812 208.812C447.646 203.354 445.062 195.417 445.062 185C445.062 178.708 445.958 173.292 447.75 168.75C449.542 164.167 451.979 160.625 455.062 158.125C461.021 153.375 467.979 151 475.937 151C481.229 151 485.687 151.875 489.312 153.625C492.979 155.333 495.75 158.229 497.625 162.312C499.542 166.354 500.5 171.875 500.5 178.875C500.5 185.042 497.458 188.125 491.375 188.125H463.625C463.958 193.5 465.333 197.292 467.75 199.5C470.208 201.708 474.083 202.812 479.375 202.812C482.25 202.812 485 202.479 487.625 201.812C490.292 201.104 492.229 200.417 493.437 199.75L495.25 198.75L499.062 208.938C498.604 209.479 497.875 210.229 496.875 211.188C496.208 211.812 494.854 212.583 492.812 213.5C490.771 214.417 488.271 215.229 485.312 215.938C482.396 216.646 479.271 217 475.937 217ZM463.75 177.5L484 176.688C484.167 175.646 484.25 174.208 484.25 172.375C484.25 170.667 483.562 168.854 482.187 166.938C480.812 165.021 478.437 164.062 475.062 164.062C471.687 164.062 469.104 165.083 467.312 167.125C465.521 169.167 464.333 172.625 463.75 177.5Z" fill="#A7A7A7"/>
<path d="M600.125 166.75L584.125 216.75H567.5L560.937 196.562C559.646 192.438 558.583 187.312 557.75 181.188L557.375 178.125H555.562C555.146 181.458 554.604 184.646 553.937 187.688C553.312 190.729 552.583 193.646 551.75 196.438L545.75 216.75H527.562L511.437 166.438C507.771 165.188 505.25 163.667 503.875 161.875L505.125 152H535.125L536.375 161.875C534.833 163.667 532.229 165.188 528.562 166.438L536 199.125H537.812C538.271 196.833 538.771 194.542 539.312 192.25C539.854 189.917 540.458 187.542 541.125 185.125L549.812 152.25H564.187L572.75 184.875L575.937 199.125H577.75C580.875 184.667 583 174.979 584.125 170.062L584.875 166.438C581.083 165.146 578.542 163.625 577.25 161.875L578.5 152H606.937L608.187 161.875C606.771 163.792 604.083 165.417 600.125 166.75Z" fill="#A7A7A7"/>
<path d="M613.875 161.5C613.875 160.833 613.875 160.167 613.875 159.5C613.917 158.792 613.958 158.083 614 157.375C621.958 153.125 630.5 151 639.625 151C648.75 151 655.292 152.729 659.25 156.188C663.208 159.646 665.187 165.375 665.187 173.375V200.625C668.146 201.25 670.5 201.979 672.25 202.812V213.938C668 215.979 661.771 217 653.562 217C652.687 214.708 651.958 212.021 651.375 208.938C647.708 214.312 641.062 217 631.437 217C627.646 217 624.167 216.25 621 214.75C617.875 213.25 615.375 211.125 613.5 208.375C611.625 205.583 610.687 202.271 610.687 198.438C610.687 192.729 612.583 188.25 616.375 185C620.167 181.708 625.812 180.062 633.312 180.062H647.312V173.875C647.312 167.208 643.771 163.875 636.687 163.875C633.937 163.875 631.75 164.146 630.125 164.688C629.917 168.312 629.417 171.083 628.625 173H616.062C614.604 169.958 613.875 166.125 613.875 161.5ZM636.937 203.938C641.312 203.938 644.771 202.667 647.312 200.125V189.625H638.312C632.187 189.625 629.125 191.979 629.125 196.688C629.125 198.812 629.771 200.562 631.062 201.938C632.396 203.271 634.354 203.938 636.937 203.938Z" fill="#A7A7A7"/>
<path d="M689.687 230.875H691.5C693.042 230.875 694.687 229.438 696.437 226.562C698.187 223.688 699.396 220.292 700.062 216.375L679.062 166.75C674.896 165.375 672.083 163.75 670.625 161.875L671.875 152H701.375L702.625 161.875C701.458 163.208 699.583 164.438 697 165.562L704.062 184.875C705.562 188.958 706.625 192.938 707.25 196.812L707.625 198.562H709.437C710.146 194.271 711.333 189.792 713 185.125L719.75 166.188C716.667 165.021 714.458 163.583 713.125 161.875L714.375 152H742.562L743.812 161.875C742.271 163.833 739.458 165.5 735.375 166.875L714.25 216.75C710.25 226.292 707.187 232.396 705.062 235.062C701.312 240.104 696.083 242.625 689.375 242.625C682.667 242.625 677.562 240.875 674.062 237.375C674.021 236.958 673.979 236.521 673.937 236.062C673.937 235.646 673.937 235.229 673.937 234.812C673.937 230.188 674.917 225.75 676.875 221.5H687.5C688.75 223.75 689.479 226.875 689.687 230.875Z" fill="#A7A7A7"/>
</g>
</svg>
